<svg version="1.1" id="Layer_1" xmlns="http://www.w3.org/2000/svg" x="0" y="0" viewBox="0 0 458.5 95.3" xml:space="preserve"><style>.st0{fill:#fff}</style><path class="st0" d="M53.5.5c-2-.3-4-.5-6-.5h-1.3c-2.2 0-4.6.2-6.9.6l-.3.1h-.3l-.6.1C27.1 2.9 18 8.1 11 16.5 3.9 25 .2 35 0 46.6c.2 13 4.8 24 13.7 32.9l3 2.7c8.2 7.1 18.4 10.7 30 10.9 11.7-.2 21.7-3.8 30.1-10.9l3-2.7c8.8-8.9 13.4-19.9 13.6-32.9-.2-11.6-3.9-21.6-11-30C75.2 8.1 66.2 2.9 55.1.8H55L53.5.5zm12.2 39.4c-2.2.8-4.2 2-6.2 3.3-5.8 4.3-9.4 9.8-10.9 16.7l-.2.8c-1 5.8-.3 10.8 2.4 15l.1.1h-3.6c-2.2-.1-4.2-.4-6.4-.8-5.3-1.1-10.1-3.2-14.5-6.1-4.4-3.2-8-7-10.7-11.8-1.9-3.1-3.2-6.5-4.1-10.2 1.1-2.8 2.6-5.3 4.5-7.7l.3-.3C22.3 32 30 28.4 39.5 28.1c9.8 0 18.2 3.5 24.9 10.6l1.3 1.2zm6.9-1.4c-1-1.6-2.2-3.1-3.6-4.6-7.2-7.7-16.3-11.6-27-11.6-10.5.2-19.2 4.2-25.8 11.8-2.2 2.6-4 5.4-5.3 8.5-.6-4.6-.1-9.4 1.4-14.2 2.9-9 8.5-15.9 17.2-20.7 8-4.5 16.6-5.7 25.8-4.2C64.5 5.3 72 9.8 77.9 16.9c6.2 7.6 8.8 16.3 7.9 25.9l-.1 1.7c-2.1-2.6-4.7-4.4-7.8-5.3l-.6-.1c-1.5-.4-3.1-.6-4.7-.6m13.9 7.1l.6-4.7c.7-10.4-2.5-19.6-9.5-27.5-2.2-2.4-4.7-4.6-7.3-6.4 6.4 3.8 11.4 8.7 15.1 15 4 6.4 6.1 13.7 6.5 21.6.1 5.7-.8 11.3-2.7 16.4.7-3.9.4-7.5-1-11.2-.6-1.2-1.1-2.2-1.7-3.2m-4.1.3c.8.6 1.8 1.4 2.7 2.4-.9 3.2-2 6-3.6 8.7-1.1 2.1-2.5 4-4.1 5.8l.5-2.7v-.5l.1-2.1c.2-4.9-.7-9.5-2.6-14 2.5.3 4.9.9 7 2.4m-70-28.1C10.8 20.4 9.3 23 8.2 26c-3 8.8-3 17.4.4 26-.2 2.2-.1 4.4.1 6.8 1 6.7 3.8 12.9 8.5 18.1-4.6-4.2-8-9.1-10.5-14.8-2.4-5.9-3.7-12-3.6-18.5.5-9.8 3.7-18.5 9.3-25.8M9.8 54.9l.9 1.5c2.8 5 6.5 9.4 11.2 12.9 4.7 3.4 9.8 5.7 15.8 7.1 4.6.9 9.2 1.1 14 .5l.8 1.1c1.6 1.8 3.5 3.3 5.6 4.2.9.3 1.8.6 2.7.8-6.8 4.7-14.3 6.4-22.3 5.2-5.4-1.2-10.2-3.3-14.7-6-.5-.4-1-.8-1.6-1.2l-1.5-1.1c-6-5.1-9.4-11.6-10.5-19-.4-2-.5-4-.4-6m74.6 14.5l-.2.5c-1.9 2.9-4.1 5.4-6.8 7.9-3.8 3-7.7 4.4-11.8 4.2 6.1-4.7 9.9-10.7 11.7-18 3.9-4.3 6.6-9.2 8.4-14.8 1.8 2.7 2.5 5.9 2.2 9.6-.3 3.4-1.5 6.9-3.5 10.6M72 67.9l-.2.2-.1.2c-5.2 3.8-10.7 6.1-17.1 7l-1-2.4c-1.7-5.2-1.2-10.6 1.8-16.4 3.2-5.9 7.6-9.9 13.6-11.9 3.3 5.6 4.6 11.6 4 18-.3 1.7-.5 3.4-1 5.3M48.5 89.3c-1.6 0-3.4-.2-5.3-.4 7.4.2 14.3-1.6 20.2-5.5l2.5-.1c1.8-.1 3.4-.5 5-1.1l.4-.2.1-.1 1.2-.5-1 .8-.2.1c-6.7 4.3-14.3 6.6-22.9 7m6.8-12.9c5.9-1.2 11.3-3.7 16.2-7.2-1.7 4.9-4.7 9-8.9 12.5-3-.8-5.5-2.5-7.3-5.3M421.2 83.1c0-3 2.2-5.4 5.1-5.4 3 0 5.3 2.4 5.3 5.4 0 3-2.3 5.3-5.3 5.3-2.9 0-5.1-2.4-5.1-5.3m-7.2-7.4c0-2.7-1-4.2-4.1-4.2h-3.5v12.6c0 3.2-1.4 4.2-3.5 4.2s-3.5-1-3.5-4.2v-8.4c0-2.7-1-4.2-4.1-4.2h-3.5v12.6c0 8 4.2 11.2 11.2 11.2 7 0 10.6-2.7 11.1-10.2 1.1 5.9 6.2 10.2 12.5 10.2 5.9 0 11-4.2 12.1-9.6v9h14.1c3 0 4.3-.9 4.3-3.9V88h-10.8V75.7c0-2.7-1-4.2-4-4.2h-3.5v9.1c-1.1-5.5-5.8-9.7-12.1-9.7s-11.5 4.2-12.5 9.7v-4.9zM267.9 29.3c-1.1-.5-4.3-1.5-9.7-1.5-10.7 0-18.3 4.9-18.8 12.1-.3 3.7 2.4 6.7 7.9 9.2 3.2 1.4 5.2 2.8 5.1 5-.1 1.8-2 3.6-5.8 3.6-4.2 0-8.5-1.6-10.1-2.2l-.6.2-2.8 6 .2.6c2.6 1.4 7.2 2.4 11.7 2.4 6.9 0 12.7-1.7 16.1-4.9 2.2-2 3.4-4.5 3.6-7.4.4-4.9-4.4-7.7-8.5-9.5-2.7-1.1-5.1-2.5-4.9-4.5.2-2.2 2.5-3.6 6-3.6 3.3 0 6 .7 7.7 1.3l.6-.3 2.8-6.1v-.3l-.5-.1M280.3 42.6c1.2-3.7 5.1-7.8 10.7-7.8 1.7 0 3.1.5 3.9 1.3.5.6.8 1.3.7 2.1v.1c-.1.9-.4 1.7-1.1 2.3-1.9 1.8-6.1 2.5-13.9 2.4h-.5l.2-.4m-1.4 7.4c12.1.3 20.3-1.5 24.4-5.2 1.9-1.7 2.9-3.9 3.1-6.5.2-2.6-.6-4.9-2.2-6.7-2.3-2.5-6.3-3.9-11.2-3.9-15 0-24.7 11.2-25.5 22.1-.3 4.3.7 7.8 3.1 10.3 2.8 3 7.4 4.6 13.6 4.6 2.5 0 9.1-.3 15-2.6l.3-.5-.2-6-.2-.3h-.4c-3.5 1.3-7.1 2-11 2-3.7 0-6.5-1-8.1-2.9-.8-1.1-1.2-2.8-1.1-3.9V50h.4M418.3 37.2l2.6-8.8-.1-.4-.3-.2h-1.3c-7.9.1-12.8 6.5-15 10.3.6-3 1.4-7.3 1.4-7.3l.3-1.7V29l-.1-.3-.3-.1h-9.1l-.4.4-.4 2.2c-.6 3.3-1.4 7.7-2.6 11.8l-5.9 20.5.1.4.3.2h10.6l.4-.3 3.7-12.8c2.5-8.8 7.5-13.4 14.4-13.4h1.3l.4-.4M434.6 57.4c-2.2 0-3.9-.6-5-1.9-1.2-1.3-1.8-3.2-1.6-5.5.4-6.2 4.9-14.9 12-14.9 2.1 0 3.7.6 4.8 1.8 1.2 1.3 1.8 3.2 1.6 5.4-.4 6.2-4.9 15.1-11.8 15.1m20.6-24.8c-2.9-3.1-7.5-4.8-13-4.8-14 0-25.2 9.7-26.1 22.5-.3 3.8.8 7.2 3.2 9.7 2.9 3.1 7.5 4.8 13 4.8h.1c14.2 0 25.1-9.5 26-22.5.3-3.8-.8-7.1-3.2-9.7M391.1 28.8l-.3-.2h-10.6l-.4.3-4.8 16.2c-2 7-6.6 11.8-11.3 11.8-1.5 0-2.6-.4-3.3-1.2-.7-.8-1-1.9-.9-3.3.1-1.5.6-3.5.9-4.9l5.3-18.4-.1-.4-.3-.2h-10.6l-.5.3-5.7 19.6c-.7 2.3-1.2 4.6-1.3 6.6-.2 3.2.5 5.6 2 7.3 1.6 1.7 4.2 2.6 7.7 2.5 8.4-.1 13.5-5.3 15.7-8.1-.5 2.5-1.4 6.8-1.4 6.8v.1l.1.3.3.2h9.2l.5-.4.2-.7c.8-3 1.6-6.4 2.8-10.4l6.7-23.4.1-.4M333.7 46c-1.8 6-6.1 10.3-10.5 10.3-1.7 0-3.1-.5-4.1-1.6-1.1-1.2-1.6-3-1.4-5.1.5-6.9 6.3-14.4 14.1-14.4 1.7 0 3.5.3 4.5.7l.3.1c-.2.7-2.9 10-2.9 10m15.4-15.9c-4.5-1.5-9.3-2.3-14.5-2.3-11 0-17.9 4.3-21.7 7.9-4.4 4.2-7.1 9.6-7.5 15.3v.2c-.4 7.4 4.4 12.3 12.1 12.5 6.9.2 11.1-3.5 13.3-6.4-.7 2.4-1.3 4.6-1.3 4.6-2.2 6.8-6.4 9.9-13.5 9.9-3 0-7.4-.6-10.2-1.7h-.3l-.2.3-2.8 6.6.2.6c2.9 1.2 7.6 2 12.7 2 4.6 0 11.1-.7 16.2-4 4.4-2.9 7.5-8 9.7-15.8l8.2-29.1-.4-.6M124.9 57.5c-2.4 0-4.2-.6-5.7-1.8l-.2-.1c.1-.5 2.1-8.1 2.1-8.1 2-7.1 6.7-11.8 11.6-11.8 1.7 0 3 .5 3.9 1.5 1 1.1 1.6 2.9 1.4 4.8-.4 7.3-6.2 15.5-13.1 15.5m13.2-29.7c-7.7 0-12.5 4.6-14.6 7.2.5-2.2 1.3-6.1 1.3-6.1v-.1l-.1-.3-.3-.2H115l-.5.4c-.7 3.3-2 9.4-3.3 13.6 0 0-9 31.1-10.4 35.8l.1.4.3.2h10.6l.4-.3 4.3-15H117.3c1.4.7 4.2 1.4 7.4 1.4 14.9 0 24.7-12 25.5-23.7.3-4-.8-7.6-3-10-2-2.2-5.1-3.3-9.1-3.3M220.7 46c-1.8 6-6.1 10.3-10.5 10.3-1.7 0-3.1-.5-4.1-1.6-1.1-1.2-1.6-3-1.4-5.1.5-6.9 6.3-14.4 14.1-14.4 1.7 0 3.5.3 4.5.7l.3.1c-.2.7-2.9 10-2.9 10m15.4-15.9c-4.5-1.5-9.4-2.3-14.5-2.3-11 0-17.9 4.3-21.7 7.9-4.4 4.2-7.1 9.6-7.5 15.3v.2c-.4 7.4 4.4 12.3 12.1 12.5 6.9.2 11.1-3.5 13.3-6.4-.7 2.4-1.3 4.6-1.3 4.6-2.2 6.8-6.4 9.9-13.5 9.9-3 0-7.4-.6-10.2-1.7h-.3l-.2.3-2.8 6.6.2.6c2.9 1.2 7.6 2 12.7 2 4.6 0 11.1-.7 16.2-4 4.4-2.9 7.5-8 9.7-15.8l8.2-29.1-.4-.6M179.1 44.2c-2.7 9.4-7.8 12.8-11.3 12.8-1.6 0-2.8-.5-3.6-1.4-1-1.1-1.5-2.8-1.3-5 .5-7.2 7.2-15.5 15.1-15.5 1 0 2.2.1 3.4.3l.4.1c-.2.8-2.7 8.7-2.7 8.7m15.6-14.8c-3.8-1-8.7-1.6-12.8-1.6-20.3 0-30.4 12.9-31.2 24.8-.5 7.3 3.7 11.9 11.4 12.2 8 .4 13.1-4.9 15.2-8.3-.4 2.7-1.1 7-1.1 7l.1.3.3.1h9.6l.3-.1.2-.3v-.4c.3-4.7 1.7-11.2 2.8-15.1l5.5-18.1-.3-.5"/></svg>